<?xml version="1.0"?>
<svg xmlns="http://www.w3.org/2000/svg" xmlns:xlink="http://www.w3.org/1999/xlink" version="1.1" id="Capa_1" x="0px" y="0px" viewBox="0 0 512.002 512.002" style="enable-background:new 0 0 512.002 512.002;" xml:space="preserve" width="512px" height="512px" class=""><g><g>
	<g>
		<path d="M504.139,268.872c-0.031-0.127-0.065-0.252-0.103-0.378l-24.175-80.618c-0.04-0.134-0.084-0.266-0.132-0.396    c-8.073-22.311-8.928-46.172-2.472-69.004l1.181-4.177c3.464-12.25,1.046-25.099-6.635-35.253    c-7.681-10.153-19.387-15.977-32.118-15.977c-12.811,0-24.561,5.881-32.239,16.137c-7.678,10.255-10.011,23.186-6.403,35.479    l1.155,3.93c5.453,18.579,6.018,38.011,1.743,56.737c-20.647-11.245-44.299-17.638-69.418-17.638    c-10.532,0-20.803,1.134-30.706,3.269c-1.497-14.241-0.288-28.785,3.591-42.506l1.181-4.177    c3.464-12.25,1.046-25.099-6.635-35.253c-7.681-10.153-19.387-15.977-32.118-15.977c-12.811,0-24.561,5.881-32.239,16.137    c-7.678,10.255-10.011,23.186-6.403,35.479l1.155,3.93c6.791,23.136,6.05,47.352-2.142,70.029    c-0.022,0.062-0.043,0.123-0.064,0.185l-6.86,20.654c-0.481,0.569-0.961,1.14-1.434,1.716l-6.994-23.321    c-0.04-0.134-0.084-0.266-0.131-0.396c-8.074-22.311-8.928-46.172-2.473-69.003l1.182-4.177    c3.463-12.251,1.045-25.101-6.636-35.254S187.412,63.07,174.68,63.07c-12.811,0-24.561,5.881-32.239,16.137    c-7.678,10.255-10.011,23.186-6.403,35.478l1.154,3.932c6.791,23.135,6.05,47.351-2.142,70.029    c-0.022,0.061-0.043,0.122-0.064,0.183l-11.11,33.45l-10.316-34.402c-0.04-0.134-0.084-0.266-0.131-0.396    c-8.074-22.311-8.928-46.172-2.472-69.004l1.181-4.177c3.464-12.25,1.046-25.099-6.635-35.253    c-7.681-10.153-19.387-15.977-32.118-15.977c-12.81,0-24.561,5.881-32.239,16.137c-7.678,10.255-10.011,23.186-6.403,35.478    l1.154,3.931c6.791,23.137,6.05,47.352-2.142,70.029c-0.022,0.062-0.043,0.123-0.064,0.184l-22.192,66.812    c-0.026,0.079-0.051,0.158-0.075,0.237c-15.233,51.542-15.233,106.027,0,157.57c6.086,20.591,25.333,34.972,46.805,34.972h29.579    c13.761,0,26.745-5.869,35.881-15.77c9.064,9.779,21.985,15.771,35.839,15.771h29.576c12.151,0,23.915-4.649,32.83-12.721    c8.797,7.957,20.402,12.72,32.75,12.72h29.577c6.017,0,11.871-1.082,17.439-3.219c10.553,2.44,21.541,3.731,32.825,3.731    c20.466,0,40.269-4.224,58.403-12.154c8.777,7.447,20.019,11.642,31.604,11.642h29.577c22.576,0,42.076-15.32,47.421-37.254    l2.61-10.712C514.623,357.412,514.623,311.913,504.139,268.872z M482.696,249.412l4.106,13.691h-12.323    c-1.341-4.664-2.913-9.231-4.697-13.691H482.696z M472.571,215.646l5.639,18.806h-15.425c-3.552-6.589-7.599-12.873-12.088-18.806    H472.571z M468.086,200.688h-30.378c-4.899-4.925-10.148-9.502-15.705-13.691H463.8c0.56,1.799,1.151,3.592,1.792,5.374    L468.086,200.688z M419.423,88.17c4.826-6.446,12.212-10.143,20.264-10.143c8.002,0,15.36,3.66,20.188,10.042    c4.828,6.381,6.347,14.458,4.17,22.159l-1.181,4.177c-5.363,18.968-6.256,38.562-2.75,57.632h-40.258    c3.317-19.142,2.233-38.778-3.303-57.637l-1.155-3.93C413.129,102.744,414.596,94.617,419.423,88.17z M249.574,88.17    c4.826-6.446,12.212-10.143,20.264-10.143c8.002,0,15.36,3.66,20.188,10.042c4.828,6.381,6.347,14.458,4.17,22.159l-1.182,4.177    c-4.612,16.313-5.9,33.65-3.802,50.535c-6.063,1.99-11.955,4.36-17.639,7.097H250.02c3.323-19.105,2.246-38.689-3.317-57.637    l-1.155-3.93C243.282,102.744,244.747,94.617,249.574,88.17z M154.418,88.17c4.826-6.446,12.212-10.143,20.264-10.143    c8.002,0,15.36,3.66,20.188,10.042c4.828,6.381,6.347,14.458,4.17,22.159l-1.182,4.177c-5.363,18.968-6.255,38.562-2.75,57.632    h-40.245c3.324-19.105,2.245-38.688-3.317-57.635l-1.154-3.932C148.125,102.744,149.592,94.617,154.418,88.17z M149.154,193.636    c0.792-2.2,1.5-4.416,2.169-6.639h47.473c0.56,1.798,1.151,3.591,1.792,5.373l2.494,8.318h-56.27L149.154,193.636z     M141.842,215.647h65.725l3.275,10.922c-1.605,2.576-3.135,5.204-4.58,7.884h-70.666L141.842,215.647z M130.628,249.411h68.638    c-1.783,4.461-3.355,9.028-4.697,13.691h-68.352C126.487,262.146,130.628,249.411,130.628,249.411z M53.123,88.17    c4.826-6.446,12.212-10.143,20.264-10.143c8.002,0,15.36,3.66,20.188,10.042c4.828,6.381,6.347,14.458,4.17,22.159l-1.182,4.177    c-5.363,18.968-6.255,38.562-2.75,57.632H53.568c3.323-19.105,2.245-38.689-3.317-57.636l-1.154-3.931    C46.831,102.744,48.297,94.617,53.123,88.17z M47.859,193.635c0.793-2.2,1.501-4.416,2.169-6.638H97.5    c0.56,1.799,1.151,3.592,1.792,5.374l2.494,8.317h-56.27L47.859,193.635z M40.548,215.646h65.724l5.639,18.806h-77.61    L40.548,215.646z M25.738,260.236l3.595-10.824h85.533c0,0-3.514,11.271-4.159,13.691H24.92    C25.191,262.147,25.456,261.189,25.738,260.236z M189.106,433.461h-29.578v0.001c-14.892,0-28.239-9.974-32.46-24.255    c-7.678-25.979-11.286-52.896-10.722-80.004c0.086-4.13-3.193-7.546-7.323-7.632c-4.146-0.081-7.547,3.192-7.633,7.323    c-0.595,28.649,3.218,57.097,11.334,84.554c0.634,2.146,1.42,4.22,2.328,6.223c-6.328,8.583-16.442,13.791-27.242,13.791H58.233    c-14.892,0-28.24-9.973-32.46-24.254c-12.657-42.825-14.196-87.798-4.622-131.147h86.016c-1.381,6.653-2.532,13.361-3.424,20.088    c-0.542,4.095,2.338,7.854,6.432,8.397c0.333,0.045,0.665,0.066,0.992,0.066c3.694,0,6.907-2.736,7.406-6.498    c0.98-7.395,2.29-14.763,3.893-22.053h4.647h64.003c-1.442,8.207-2.199,16.648-2.199,25.262c0,16.729,2.844,32.803,8.06,47.776    c1.25,21.112,4.914,42.084,10.903,62.348c1.115,3.771,2.675,7.332,4.605,10.636C206.229,430.088,197.955,433.461,189.106,433.461z     M254.684,433.461c-14.892,0-28.24-9.973-32.46-24.254c-1.918-6.488-3.559-13.059-4.971-19.68    c13.585,18.432,31.403,33.557,52.01,43.933H254.684z M489.604,396.912l-2.61,10.712c-3.706,15.213-17.229,25.836-32.887,25.836    h-29.577c-5.828,0-11.534-1.529-16.552-4.342c15.459-9.047,29.317-21.011,40.81-35.544c2.562-3.24,2.013-7.944-1.227-10.506    c-3.24-2.56-7.943-2.014-10.506,1.227c-12.414,15.696-27.895,28.06-45.264,36.53c-0.411,0.15-0.809,0.343-1.195,0.567    c-17.253,8.196-36.321,12.578-56.075,12.578c-72.042,0-130.651-58.61-130.651-130.651s58.612-130.648,130.653-130.648    c72.04,0,130.65,58.609,130.65,130.65c0,19.911-4.363,39.025-12.966,56.814c-1.799,3.719-0.242,8.191,3.476,9.99    c3.718,1.797,8.19,0.242,9.989-3.476c9.594-19.836,14.46-41.142,14.46-63.327c0-8.614-0.757-17.055-2.199-25.262h12.839    c-0.797-2.655-1.392-5.37-1.891-8.018l0.768,2.56C499.527,313.272,499.511,356.25,489.604,396.912z" data-original="#000000" class="active-path" data-old_color="#299BFD" fill="#289BFD"/>
	</g>
</g><g>
	<g>
		<path d="M286.435,353.142c-10.894,0-19.757,8.863-19.757,19.758c0,10.895,8.863,19.758,19.757,19.758    c10.895,0,19.758-8.863,19.758-19.758C306.193,362.005,297.329,353.142,286.435,353.142z M286.435,377.699    c-2.646,0-4.799-2.153-4.799-4.8s2.153-4.8,4.799-4.8c2.647,0,4.8,2.153,4.8,4.8S289.081,377.699,286.435,377.699z" data-original="#000000" class="active-path" data-old_color="#299BFD" fill="#289BFD"/>
	</g>
</g><g>
	<g>
		<path d="M250.623,319.377c-10.894,0-19.757,8.863-19.757,19.758c0,10.894,8.863,19.757,19.757,19.757    c10.895,0,19.758-8.863,19.758-19.757C270.38,328.24,261.518,319.377,250.623,319.377z M250.623,343.933    c-2.646,0-4.799-2.152-4.799-4.799s2.153-4.8,4.799-4.8c2.647,0,4.8,2.153,4.8,4.8S253.27,343.933,250.623,343.933z" data-original="#000000" class="active-path" data-old_color="#299BFD" fill="#289BFD"/>
	</g>
</g><g>
	<g>
		<path d="M298.713,305.052c-10.895,0-19.758,8.863-19.758,19.758c0,10.894,8.863,19.757,19.758,19.757    c10.894,0,19.757-8.863,19.757-19.757C318.47,313.915,309.607,305.052,298.713,305.052z M298.713,329.609    c-2.647,0-4.8-2.152-4.8-4.799s2.153-4.8,4.8-4.8c2.646,0,4.799,2.153,4.799,4.8S301.359,329.609,298.713,329.609z" data-original="#000000" class="active-path" data-old_color="#299BFD" fill="#289BFD"/>
	</g>
</g></g> </svg>
